STARTFONT 2.1
FONT -Adobe-Courier-Bold-O-Normal--11-80-100-100-M-60-ISO8859-2
SIZE 8 100 100
FONTBOUNDINGBOX 10 11 -2 -2
COMMENT $XConsortium: courBO08.bdf,v 1.6 95/01/26 17:52:28 gildea Exp $
COMMENT 
COMMENT +
COMMENT  Copyright 1984-1989, 1994 Adobe Systems Incorporated.
COMMENT  Copyright 1988, 1994 Digital Equipment Corporation.
COMMENT
COMMENT  Adobe is a trademark of Adobe Systems Incorporated which may be
COMMENT  registered in certain jurisdictions.
COMMENT  Permission to use these trademarks is hereby granted only in
COMMENT  association with the images described in this file.
COMMENT
COMMENT  Permission to use, copy, modify, distribute and sell this software
COMMENT  and its documentation for any purpose and without fee is hereby
COMMENT  granted, provided that the above copyright notices appear in all
COMMENT  copies and that both those copyright notices and this permission
COMMENT  notice appear in supporting documentation, and that the names of
COMMENT  Adobe Systems and Digital Equipment Corporation not be used in
COMMENT  advertising or publicity pertaining to distribution of the software
COMMENT  without specific, written prior permission.  Adobe Systems and
COMMENT  Digital Equipment Corporation make no representations about the
COMMENT  suitability of this software for any purpose.  It is provided "as
COMMENT  is" without express or implied warranty.
COMMENT -
COMMENT  
COMMENT  Translation to ISO8859-2 by Cub Soft;  Petr.Kolar@vslib.cz
COMMENT  
STARTPROPERTIES 28
FOUNDRY "Adobe"
FAMILY_NAME "Courier"
WEIGHT_NAME "Bold"
SLANT "O"
SETWIDTH_NAME "Normal"
ADD_STYLE_NAME ""
PIXEL_SIZE 11
POINT_SIZE 80
RESOLUTION_X 100
RESOLUTION_Y 100
SPACING "M"
AVERAGE_WIDTH 60
CHARSET_REGISTRY "ISO8859"
CHARSET_ENCODING "2"
CAP_HEIGHT 6
X_HEIGHT 5
FONT_ASCENT 8
FONT_DESCENT 2
FACE_NAME "Courier Bold Oblique"

STARTCHAR space
ENCODING 32
SWIDTH 600 0
DWIDTH 6 0
BBX 1 1 0 0
BITMAP
00
ENDCHAR
STARTCHAR exclam
ENCODING 33
SWIDTH 600 0
DWIDTH 6 0
BBX 4 7 1 0
BITMAP
10
30
20
60
60
00
c0
ENDCHAR
STARTCHAR quotedbl
ENCODING 34
SWIDTH 600 0
DWIDTH 6 0
BBX 4 3 1 4
BITMAP
50
50
a0
ENDCHAR
STARTCHAR numbersign
ENCODING 35
SWIDTH 600 0
DWIDTH 6 0
BBX 7 8 -1 -1
BITMAP
14
14
7e
28
28
fc
50
50
ENDCHAR
STARTCHAR dollar
ENCODING 36
SWIDTH 600 0
DWIDTH 6 0
BBX 6 8 0 -1
BITMAP
08
3c
64
30
18
d8
f0
20
ENDCHAR
STARTCHAR percent
ENCODING 37
SWIDTH 600 0
DWIDTH 6 0
BBX 6 7 0 0
BITMAP
30
54
78
30
78
a8
30
ENDCHAR
STARTCHAR ampersand
ENCODING 38
SWIDTH 600 0
DWIDTH 6 0
BBX 6 6 0 0
BITMAP
1c
34
30
7c
d8
7c
ENDCHAR
STARTCHAR apostrophe
ENCODING 39
SWIDTH 600 0
DWIDTH 6 0
BBX 2 3 2 4
BITMAP
40
40
80
ENDCHAR
STARTCHAR parenleft
ENCODING 40
SWIDTH 600 0
DWIDTH 6 0
BBX 5 9 1 -2
BITMAP
08
30
60
40
c0
c0
40
60
20
ENDCHAR
STARTCHAR parenright
ENCODING 41
SWIDTH 600 0
DWIDTH 6 0
BBX 5 9 0 -2
BITMAP
20
30
10
18
18
10
30
60
80
ENDCHAR
STARTCHAR asterisk
ENCODING 42
SWIDTH 600 0
DWIDTH 6 0
BBX 5 4 1 3
BITMAP
20
f8
60
b0
ENDCHAR
STARTCHAR plus
ENCODING 43
SWIDTH 600 0
DWIDTH 6 0
BBX 5 5 0 1
BITMAP
10
20
f8
20
40
ENDCHAR
STARTCHAR comma
ENCODING 44
SWIDTH 600 0
DWIDTH 6 0
BBX 3 3 0 -2
BITMAP
60
20
c0
ENDCHAR
STARTCHAR minus
ENCODING 45
SWIDTH 600 0
DWIDTH 6 0
BBX 5 1 0 3
BITMAP
f8
ENDCHAR
STARTCHAR period
ENCODING 46
SWIDTH 600 0
DWIDTH 6 0
BBX 2 1 1 0
BITMAP
c0
ENDCHAR
STARTCHAR slash
ENCODING 47
SWIDTH 600 0
DWIDTH 6 0
BBX 5 8 1 -1
BITMAP
08
18
10
20
60
40
80
80
ENDCHAR
STARTCHAR zero
ENCODING 48
SWIDTH 600 0
DWIDTH 6 0
BBX 6 7 0 0
BITMAP
38
6c
4c
c8
c8
d0
60
ENDCHAR
STARTCHAR one
ENCODING 49
SWIDTH 600 0
DWIDTH 6 0
BBX 6 7 0 0
BITMAP
0c
3c
18
18
30
30
f8
ENDCHAR
STARTCHAR two
ENCODING 50
SWIDTH 600 0
DWIDTH 6 0
BBX 7 7 -1 0
BITMAP
1c
36
06
0c
30
64
fc
ENDCHAR
STARTCHAR three
ENCODING 51
SWIDTH 600 0
DWIDTH 6 0
BBX 6 7 0 0
BITMAP
38
4c
18
30
18
98
f0
ENDCHAR
STARTCHAR four
ENCODING 52
SWIDTH 600 0
DWIDTH 6 0
BBX 5 7 0 0
BITMAP
18
38
58
90
f8
30
30
ENDCHAR
STARTCHAR five
ENCODING 53
SWIDTH 600 0
DWIDTH 6 0
BBX 6 7 0 0
BITMAP
3c
60
70
18
18
98
e0
ENDCHAR
STARTCHAR six
ENCODING 54
SWIDTH 600 0
DWIDTH 6 0
BBX 6 7 0 0
BITMAP
38
64
40
f8
e8
c8
70
ENDCHAR
STARTCHAR seven
ENCODING 55
SWIDTH 600 0
DWIDTH 6 0
BBX 5 7 1 0
BITMAP
f8
d8
30
60
40
c0
c0
ENDCHAR
STARTCHAR eight
ENCODING 56
SWIDTH 600 0
DWIDTH 6 0
BBX 6 7 0 0
BITMAP
38
4c
68
70
d8
98
70
ENDCHAR
STARTCHAR nine
ENCODING 57
SWIDTH 600 0
DWIDTH 6 0
BBX 6 7 0 0
BITMAP
38
6c
4c
7c
18
98
60
ENDCHAR
STARTCHAR colon
ENCODING 58
SWIDTH 600 0
DWIDTH 6 0
BBX 3 4 1 0
BITMAP
60
00
00
c0
ENDCHAR
STARTCHAR semicolon
ENCODING 59
SWIDTH 600 0
DWIDTH 6 0
BBX 4 6 0 -2
BITMAP
30
00
00
60
20
c0
ENDCHAR
STARTCHAR less
ENCODING 60
SWIDTH 600 0
DWIDTH 6 0
BBX 5 5 1 1
BITMAP
18
60
c0
60
20
ENDCHAR
STARTCHAR equal
ENCODING 61
SWIDTH 600 0
DWIDTH 6 0
BBX 5 3 0 2
BITMAP
78
00
f0
ENDCHAR
STARTCHAR greater
ENCODING 62
SWIDTH 600 0
DWIDTH 6 0
BBX 5 5 0 1
BITMAP
20
30
18
30
c0
ENDCHAR
STARTCHAR question
ENCODING 63
SWIDTH 600 0
DWIDTH 6 0
BBX 5 6 1 0
BITMAP
70
98
30
60
00
c0
ENDCHAR
STARTCHAR at
ENCODING 64
SWIDTH 600 0
DWIDTH 6 0
BBX 6 8 0 -1
BITMAP
38
44
9c
a8
a8
9c
c0
70
ENDCHAR
STARTCHAR A
ENCODING 65
SWIDTH 600 0
DWIDTH 6 0
BBX 7 6 -1 0
BITMAP
1c
0c
1c
34
6c
e6
ENDCHAR
STARTCHAR B
ENCODING 66
SWIDTH 600 0
DWIDTH 6 0
BBX 6 6 0 0
BITMAP
78
24
7c
68
cc
f8
ENDCHAR
STARTCHAR C
ENCODING 67
SWIDTH 600 0
DWIDTH 6 0
BBX 6 6 0 0
BITMAP
3c
64
c0
c0
d8
70
ENDCHAR
STARTCHAR D
ENCODING 68
SWIDTH 600 0
DWIDTH 6 0
BBX 7 6 -1 0
BITMAP
7c
36
26
66
4c
f8
ENDCHAR
STARTCHAR E
ENCODING 69
SWIDTH 600 0
DWIDTH 6 0
BBX 6 6 0 0
BITMAP
7c
24
78
60
c8
f8
ENDCHAR
STARTCHAR F
ENCODING 70
SWIDTH 600 0
DWIDTH 6 0
BBX 7 6 0 0
BITMAP
7c
26
78
68
c0
e0
ENDCHAR
STARTCHAR G
ENCODING 71
SWIDTH 600 0
DWIDTH 6 0
BBX 6 6 0 0
BITMAP
3c
64
c0
dc
c8
78
ENDCHAR
STARTCHAR H
ENCODING 72
SWIDTH 600 0
DWIDTH 6 0
BBX 8 6 -1 0
BITMAP
3b
32
3e
64
6c
ec
ENDCHAR
STARTCHAR I
ENCODING 73
SWIDTH 600 0
DWIDTH 6 0
BBX 7 6 0 0
BITMAP
3e
18
18
30
30
f8
ENDCHAR
STARTCHAR J
ENCODING 74
SWIDTH 600 0
DWIDTH 6 0
BBX 6 6 0 0
BITMAP
3c
18
18
90
b0
e0
ENDCHAR
STARTCHAR K
ENCODING 75
SWIDTH 600 0
DWIDTH 6 0
BBX 8 6 -1 0
BITMAP
3b
16
38
38
6c
f6
ENDCHAR
STARTCHAR L
ENCODING 76
SWIDTH 600 0
DWIDTH 6 0
BBX 5 6 0 0
BITMAP
38
30
30
60
68
f8
ENDCHAR
STARTCHAR M
ENCODING 77
SWIDTH 600 0
DWIDTH 6 0
BBX 8 6 -1 0
BITMAP
73
3e
2a
66
64
ee
ENDCHAR
STARTCHAR N
ENCODING 78
SWIDTH 600 0
DWIDTH 6 0
BBX 7 6 0 0
BITMAP
76
34
74
58
d8
d8
ENDCHAR
STARTCHAR O
ENCODING 79
SWIDTH 600 0
DWIDTH 6 0
BBX 6 6 0 0
BITMAP
38
6c
cc
cc
d8
70
ENDCHAR
STARTCHAR P
ENCODING 80
SWIDTH 600 0
DWIDTH 6 0
BBX 6 6 0 0
BITMAP
78
34
24
78
60
e0
ENDCHAR
STARTCHAR Q
ENCODING 81
SWIDTH 600 0
DWIDTH 6 0
BBX 6 7 0 -1
BITMAP
38
6c
cc
cc
d8
70
18
ENDCHAR
STARTCHAR R
ENCODING 82
SWIDTH 600 0
DWIDTH 6 0
BBX 6 6 0 0
BITMAP
78
2c
6c
70
d8
cc
ENDCHAR
STARTCHAR S
ENCODING 83
SWIDTH 600 0
DWIDTH 6 0
BBX 6 6 0 0
BITMAP
3c
64
78
1c
c8
f0
ENDCHAR
STARTCHAR T
ENCODING 84
SWIDTH 600 0
DWIDTH 6 0
BBX 7 6 0 0
BITMAP
7e
b4
30
20
60
f0
ENDCHAR
STARTCHAR U
ENCODING 85
SWIDTH 600 0
DWIDTH 6 0
BBX 7 6 0 0
BITMAP
76
64
6c
c8
c8
70
ENDCHAR
STARTCHAR V
ENCODING 86
SWIDTH 600 0
DWIDTH 6 0
BBX 6 6 0 0
BITMAP
ec
4c
58
70
60
40
ENDCHAR
STARTCHAR W
ENCODING 87
SWIDTH 600 0
DWIDTH 6 0
BBX 7 6 0 0
BITMAP
c6
54
54
7c
78
50
ENDCHAR
STARTCHAR X
ENCODING 88
SWIDTH 600 0
DWIDTH 6 0
BBX 7 6 0 0
BITMAP
76
34
18
38
6c
cc
ENDCHAR
STARTCHAR Y
ENCODING 89
SWIDTH 600 0
DWIDTH 6 0
BBX 6 6 1 0
BITMAP
ec
68
30
60
60
f0
ENDCHAR
STARTCHAR Z
ENCODING 90
SWIDTH 600 0
DWIDTH 6 0
BBX 7 6 0 0
BITMAP
3e
4c
18
30
6c
f8
ENDCHAR
STARTCHAR bracketleft
ENCODING 91
SWIDTH 600 0
DWIDTH 6 0
BBX 6 9 0 -2
BITMAP
3c
30
30
60
60
60
c0
c0
f0
ENDCHAR
STARTCHAR backslash
ENCODING 92
SWIDTH 600 0
DWIDTH 6 0
BBX 4 8 1 -1
BITMAP
80
80
40
40
20
20
10
10
ENDCHAR
STARTCHAR bracketright
ENCODING 93
SWIDTH 600 0
DWIDTH 6 0
BBX 6 9 0 -2
BITMAP
1c
0c
18
18
18
30
30
30
e0
ENDCHAR
STARTCHAR asciicircum
ENCODING 94
SWIDTH 600 0
DWIDTH 6 0
BBX 5 3 1 4
BITMAP
30
70
98
ENDCHAR
STARTCHAR underscore
ENCODING 95
SWIDTH 600 0
DWIDTH 6 0
BBX 6 1 -1 -2
BITMAP
fc
ENDCHAR
STARTCHAR grave
ENCODING 96
SWIDTH 600 0
DWIDTH 6 0
BBX 3 2 2 6
BITMAP
c0
20
ENDCHAR
STARTCHAR a
ENCODING 97
SWIDTH 600 0
DWIDTH 6 0
BBX 6 5 0 0
BITMAP
78
0c
7c
c8
fc
ENDCHAR
STARTCHAR b
ENCODING 98
SWIDTH 600 0
DWIDTH 6 0
BBX 6 7 0 0
BITMAP
70
30
38
6c
4c
d8
f0
ENDCHAR
STARTCHAR c
ENCODING 99
SWIDTH 600 0
DWIDTH 6 0
BBX 6 5 0 0
BITMAP
38
6c
c0
d8
70
ENDCHAR
STARTCHAR d
ENCODING 100
SWIDTH 600 0
DWIDTH 6 0
BBX 7 7 0 0
BITMAP
0e
06
3c
6c
cc
d8
7c
ENDCHAR
STARTCHAR e
ENCODING 101
SWIDTH 600 0
DWIDTH 6 0
BBX 6 5 0 0
BITMAP
38
6c
fc
c0
78
ENDCHAR
STARTCHAR f
ENCODING 102
SWIDTH 600 0
DWIDTH 6 0
BBX 7 7 0 0
BITMAP
0e
18
7c
30
30
60
f8
ENDCHAR
STARTCHAR g
ENCODING 103
SWIDTH 600 0
DWIDTH 6 0
BBX 6 7 0 -2
BITMAP
34
6c
cc
d8
78
10
e0
ENDCHAR
STARTCHAR h
ENCODING 104
SWIDTH 600 0
DWIDTH 6 0
BBX 6 7 0 0
BITMAP
70
30
3c
6c
68
d8
dc
ENDCHAR
STARTCHAR i
ENCODING 105
SWIDTH 600 0
DWIDTH 6 0
BBX 6 7 0 0
BITMAP
0c
00
78
18
10
30
fc
ENDCHAR
STARTCHAR j
ENCODING 106
SWIDTH 600 0
DWIDTH 6 0
BBX 7 9 -1 -2
BITMAP
06
00
3c
0c
08
18
18
30
e0
ENDCHAR
STARTCHAR k
ENCODING 107
SWIDTH 600 0
DWIDTH 6 0
BBX 8 7 -1 0
BITMAP
38
18
37
2c
38
68
ec
ENDCHAR
STARTCHAR l
ENCODING 108
SWIDTH 600 0
DWIDTH 6 0
BBX 6 7 0 0
BITMAP
3c
0c
18
18
30
30
f8
ENDCHAR
STARTCHAR m
ENCODING 109
SWIDTH 600 0
DWIDTH 6 0
BBX 7 5 -1 0
BITMAP
7c
3e
2a
54
d6
ENDCHAR
STARTCHAR n
ENCODING 110
SWIDTH 600 0
DWIDTH 6 0
BBX 6 5 0 0
BITMAP
d8
6c
68
d8
dc
ENDCHAR
STARTCHAR o
ENCODING 111
SWIDTH 600 0
DWIDTH 6 0
BBX 6 5 0 0
BITMAP
38
6c
cc
d8
70
ENDCHAR
STARTCHAR p
ENCODING 112
SWIDTH 600 0
DWIDTH 6 0
BBX 7 7 -1 -2
BITMAP
7c
36
26
2c
78
60
f0
ENDCHAR
STARTCHAR q
ENCODING 113
SWIDTH 600 0
DWIDTH 6 0
BBX 7 7 0 -2
BITMAP
36
6c
cc
c8
78
18
38
ENDCHAR
STARTCHAR r
ENCODING 114
SWIDTH 600 0
DWIDTH 6 0
BBX 7 5 0 0
BITMAP
76
38
30
60
f0
ENDCHAR
STARTCHAR s
ENCODING 115
SWIDTH 600 0
DWIDTH 6 0
BBX 6 5 0 0
BITMAP
3c
64
78
98
f0
ENDCHAR
STARTCHAR t
ENCODING 116
SWIDTH 600 0
DWIDTH 6 0
BBX 5 7 1 0
BITMAP
20
60
f8
60
c0
d8
70
ENDCHAR
STARTCHAR u
ENCODING 117
SWIDTH 600 0
DWIDTH 6 0
BBX 6 5 0 0
BITMAP
ec
6c
c8
d8
7c
ENDCHAR
STARTCHAR v
ENCODING 118
SWIDTH 600 0
DWIDTH 6 0
BBX 7 5 0 0
BITMAP
ee
64
68
30
20
ENDCHAR
STARTCHAR w
ENCODING 119
SWIDTH 600 0
DWIDTH 6 0
BBX 7 5 0 0
BITMAP
d6
54
78
78
50
ENDCHAR
STARTCHAR x
ENCODING 120
SWIDTH 600 0
DWIDTH 6 0
BBX 7 5 -1 0
BITMAP
66
3c
38
6c
cc
ENDCHAR
STARTCHAR y
ENCODING 121
SWIDTH 600 0
DWIDTH 6 0
BBX 8 7 -1 -2
BITMAP
77
36
34
18
10
20
f0
ENDCHAR
STARTCHAR z
ENCODING 122
SWIDTH 600 0
DWIDTH 6 0
BBX 7 5 -1 0
BITMAP
3e
4c
38
66
fc
ENDCHAR
STARTCHAR braceleft
ENCODING 123
SWIDTH 600 0
DWIDTH 6 0
BBX 6 9 0 -2
BITMAP
0c
10
30
70
c0
60
60
40
30
ENDCHAR
STARTCHAR bar
ENCODING 124
SWIDTH 600 0
DWIDTH 6 0
BBX 2 7 3 -1
BITMAP
40
40
40
80
80
80
80
ENDCHAR
STARTCHAR braceright
ENCODING 125
SWIDTH 600 0
DWIDTH 6 0
BBX 6 9 -1 -2
BITMAP
30
08
18
18
0c
10
30
30
c0
ENDCHAR
STARTCHAR asciitilde
ENCODING 126
SWIDTH 600 0
DWIDTH 6 0
BBX 5 2 1 3
BITMAP
68
b0
ENDCHAR
STARTCHAR nobreakspace
ENCODING 160
SWIDTH 600 0
DWIDTH 6 0
BBX 1 1 0 0
BITMAP
00
ENDCHAR
STARTCHAR Aogonek
ENCODING 161
SWIDTH 600 0
DWIDTH 6 0
BBX 7 8 -1 -2
BITMAP
1c
0c
1c
34
6c
e6
20
38
ENDCHAR
STARTCHAR breve
ENCODING 162
SWIDTH 600 0
DWIDTH 6 0
BBX 4 2 2 6
BITMAP
90
60
ENDCHAR
STARTCHAR Lstroke
ENCODING 163
SWIDTH 600 0
DWIDTH 6 0
BBX 5 6 0 0
BITMAP
38
30
38
e0
68
f8
ENDCHAR
STARTCHAR currency
ENCODING 164
SWIDTH 600 0
DWIDTH 6 0
BBX 5 5 0 1
BITMAP
48
70
50
70
90
ENDCHAR
STARTCHAR Lcaron
ENCODING 165
SWIDTH 810 0
DWIDTH 9 0
BBX 8 7 0 0
BITMAP
01
39
32
30
60
68
f8
ENDCHAR
STARTCHAR Sacute
ENCODING 166
SWIDTH 600 0
DWIDTH 6 0
BBX 6 9 0 0
BITMAP
0c
10
00
3c
64
78
1c
c8
f0
ENDCHAR
STARTCHAR section
ENCODING 167
SWIDTH 600 0
DWIDTH 6 0
BBX 5 8 1 -1
BITMAP
38
48
e0
90
48
38
90
e0
ENDCHAR
STARTCHAR diaeresis
ENCODING 168
SWIDTH 600 0
DWIDTH 6 0
BBX 3 1 3 5
BITMAP
a0
ENDCHAR
STARTCHAR Scaron
ENCODING 169
SWIDTH 600 0
DWIDTH 6 0
BBX 6 9 0 0
BITMAP
14
18
00
3c
64
78
1c
c8
f0
ENDCHAR
STARTCHAR Scedilla
ENCODING 170
SWIDTH 600 0
DWIDTH 6 0
BBX 6 8 0 -2
BITMAP
3c
64
78
1c
c8
f0
10
60
ENDCHAR
STARTCHAR Tcaron
ENCODING 171
SWIDTH 600 0
DWIDTH 6 0
BBX 7 9 0 0
BITMAP
14
18
00
7e
b4
30
20
60
f0
ENDCHAR
STARTCHAR Zacute
ENCODING 172
SWIDTH 600 0
DWIDTH 6 0
BBX 7 9 0 0
BITMAP
0c
10
00
3e
4c
18
30
6c
f8
ENDCHAR
STARTCHAR hyphen
ENCODING 173
SWIDTH 600 0
DWIDTH 6 0
BBX 4 1 1 3
BITMAP
f0
ENDCHAR
STARTCHAR Zcaron
ENCODING 174
SWIDTH 600 0
DWIDTH 6 0
BBX 7 9 0 0
BITMAP
14
18
00
3e
4c
18
30
6c
f8
ENDCHAR
STARTCHAR Zabovedot
ENCODING 175
SWIDTH 600 0
DWIDTH 6 0
BBX 7 8 0 0
BITMAP
10
00
3e
4c
18
30
6c
f8
ENDCHAR
STARTCHAR degree
ENCODING 176
SWIDTH 600 0
DWIDTH 6 0
BBX 3 3 1 4
BITMAP
60
a0
c0
ENDCHAR
STARTCHAR aogonek
ENCODING 177
SWIDTH 600 0
DWIDTH 6 0
BBX 6 7 0 -2
BITMAP
78
0c
7c
c8
fc
40
70
ENDCHAR
STARTCHAR ogonek
ENCODING 178
SWIDTH 600 0
DWIDTH 6 0
BBX 3 2 1 -2
BITMAP
80
e0
ENDCHAR
STARTCHAR lstroke
ENCODING 179
SWIDTH 600 0
DWIDTH 6 0
BBX 6 7 0 0
BITMAP
1c
0c
18
1c
70
30
f8
ENDCHAR
STARTCHAR acute
ENCODING 180
SWIDTH 600 0
DWIDTH 6 0
BBX 3 2 3 5
BITMAP
60
80
ENDCHAR
STARTCHAR lcaron
ENCODING 181
SWIDTH 810 0
DWIDTH 9 0
BBX 9 8 0 0
BITMAP
0080
3c80
0d00
1800
1800
3000
3000
f800
ENDCHAR
STARTCHAR sacute
ENCODING 182
SWIDTH 600 0
DWIDTH 6 0
BBX 6 8 0 0
BITMAP
0c
10
00
3c
64
78
98
f0
ENDCHAR
STARTCHAR caron
ENCODING 183
SWIDTH 600 0
DWIDTH 6 0
BBX 3 2 3 6
BITMAP
a0
c0
ENDCHAR
STARTCHAR cedilla
ENCODING 184
SWIDTH 600 0
DWIDTH 6 0
BBX 3 2 0 -2
BITMAP
20
c0
ENDCHAR
STARTCHAR scaron
ENCODING 185
SWIDTH 600 0
DWIDTH 6 0
BBX 6 8 0 0
BITMAP
14
18
00
3c
64
78
98
f0
ENDCHAR
STARTCHAR scedilla
ENCODING 186
SWIDTH 600 0
DWIDTH 6 0
BBX 6 7 0 -2
BITMAP
3c
64
78
98
f0
10
60
ENDCHAR
STARTCHAR tcaron
ENCODING 187
SWIDTH 630 0
DWIDTH 7 0
BBX 6 9 1 0
BITMAP
04
04
28
60
f8
60
c0
d8
70
ENDCHAR
STARTCHAR zacute
ENCODING 188
SWIDTH 600 0
DWIDTH 6 0
BBX 7 8 -1 0
BITMAP
0c
10
00
3e
4c
38
66
fc
ENDCHAR
STARTCHAR doubleacute
ENCODING 189
SWIDTH 600 0
DWIDTH 6 0
BBX 5 2 1 6
BITMAP
48
90
ENDCHAR
STARTCHAR zcaron
ENCODING 190
SWIDTH 600 0
DWIDTH 6 0
BBX 7 8 -1 0
BITMAP
14
18
00
3e
4c
38
66
fc
ENDCHAR
STARTCHAR zabovedot
ENCODING 191
SWIDTH 600 0
DWIDTH 6 0
BBX 7 7 -1 0
BITMAP
10
00
3e
4c
38
66
fc
ENDCHAR
STARTCHAR Racute
ENCODING 192
SWIDTH 600 0
DWIDTH 6 0
BBX 6 9 0 0
BITMAP
0c
10
00
78
2c
6c
70
d8
cc
ENDCHAR
STARTCHAR Aacute
ENCODING 193
SWIDTH 600 0
DWIDTH 6 0
BBX 7 9 -1 0
BITMAP
06
08
00
1c
0c
1c
34
6c
e6
ENDCHAR
STARTCHAR Acircumflex
ENCODING 194
SWIDTH 600 0
DWIDTH 6 0
BBX 7 9 -1 0
BITMAP
0c
14
00
1c
0c
1c
34
6c
e6
ENDCHAR
STARTCHAR Abreve
ENCODING 195
SWIDTH 600 0
DWIDTH 6 0
BBX 7 9 -1 0
BITMAP
12
0c
00
1c
0c
1c
34
6c
e6
ENDCHAR
STARTCHAR Adiaeresis
ENCODING 196
SWIDTH 600 0
DWIDTH 6 0
BBX 7 8 -1 0
BITMAP
14
00
1c
0c
1c
34
6c
e6
ENDCHAR
STARTCHAR Lacute
ENCODING 197
SWIDTH 600 0
DWIDTH 6 0
BBX 6 9 0 0
BITMAP
0c
10
00
38
30
30
60
68
f8
ENDCHAR
STARTCHAR Cacute
ENCODING 198
SWIDTH 600 0
DWIDTH 6 0
BBX 6 9 0 0
BITMAP
0c
10
00
3c
64
c0
c0
d8
70
ENDCHAR
STARTCHAR Ccedilla
ENCODING 199
SWIDTH 600 0
DWIDTH 6 0
BBX 6 8 0 -2
BITMAP
3c
64
c0
c0
d8
70
20
c0
ENDCHAR
STARTCHAR Ccaron
ENCODING 200
SWIDTH 600 0
DWIDTH 6 0
BBX 6 9 0 0
BITMAP
14
18
00
3c
64
c0
c0
d8
70
ENDCHAR
STARTCHAR Eacute
ENCODING 201
SWIDTH 600 0
DWIDTH 6 0
BBX 6 9 0 0
BITMAP
0c
10
00
7c
24
78
60
c8
f8
ENDCHAR
STARTCHAR Eogonek
ENCODING 202
SWIDTH 600 0
DWIDTH 6 0
BBX 6 8 0 -2
BITMAP
7c
24
78
60
c8
f8
40
70
ENDCHAR
STARTCHAR Ediaeresis
ENCODING 203
SWIDTH 600 0
DWIDTH 6 0
BBX 6 8 0 0
BITMAP
14
00
7c
24
78
60
c8
f8
ENDCHAR
STARTCHAR Ecaron
ENCODING 204
SWIDTH 600 0
DWIDTH 6 0
BBX 6 9 0 0
BITMAP
14
18
00
7c
24
78
60
c8
f8
ENDCHAR
STARTCHAR Iacute
ENCODING 205
SWIDTH 600 0
DWIDTH 6 0
BBX 7 9 0 0
BITMAP
0c
10
00
3e
18
18
30
30
f8
ENDCHAR
STARTCHAR Icircumflex
ENCODING 206
SWIDTH 600 0
DWIDTH 6 0
BBX 7 9 0 0
BITMAP
0c
14
00
3e
18
18
30
30
f8
ENDCHAR
STARTCHAR Dcaron
ENCODING 207
SWIDTH 600 0
DWIDTH 6 0
BBX 7 9 -1 0
BITMAP
14
18
00
7c
36
26
66
4c
f8
ENDCHAR
STARTCHAR Dstroke
ENCODING 208
SWIDTH 600 0
DWIDTH 6 0
BBX 7 6 -1 0
BITMAP
7c
26
f2
66
4c
f8
ENDCHAR
STARTCHAR Nacute
ENCODING 209
SWIDTH 600 0
DWIDTH 6 0
BBX 7 9 0 0
BITMAP
0c
10
00
76
34
74
58
d8
d8
ENDCHAR
STARTCHAR Ncaron
ENCODING 210
SWIDTH 600 0
DWIDTH 6 0
BBX 7 9 0 0
BITMAP
14
18
00
76
34
74
58
d8
d8
ENDCHAR
STARTCHAR Oacute
ENCODING 211
SWIDTH 600 0
DWIDTH 6 0
BBX 6 9 0 0
BITMAP
0c
10
00
38
6c
44
cc
c8
70
ENDCHAR
STARTCHAR Ocircumflex
ENCODING 212
SWIDTH 600 0
DWIDTH 6 0
BBX 6 9 0 0
BITMAP
0c
14
00
38
6c
44
cc
c8
70
ENDCHAR
STARTCHAR Odoubleacute
ENCODING 213
SWIDTH 600 0
DWIDTH 6 0
BBX 7 9 0 0
BITMAP
12
24
00
38
6c
cc
cc
d8
70
ENDCHAR
STARTCHAR Odiaeresis
ENCODING 214
SWIDTH 600 0
DWIDTH 6 0
BBX 6 8 0 0
BITMAP
14
00
38
6c
44
cc
c8
70
ENDCHAR
STARTCHAR multiply
ENCODING 215
SWIDTH 600 0
DWIDTH 6 0
BBX 6 5 0 1
BITMAP
6c
28
30
50
d8
ENDCHAR
STARTCHAR Rcaron
ENCODING 216
SWIDTH 600 0
DWIDTH 6 0
BBX 6 9 0 0
BITMAP
14
18
00
78
2c
6c
70
d8
cc
ENDCHAR
STARTCHAR Uring
ENCODING 217
SWIDTH 600 0
DWIDTH 6 0
BBX 7 10 0 0
BITMAP
10
28
10
00
76
64
6c
c8
c8
70
ENDCHAR
STARTCHAR Uacute
ENCODING 218
SWIDTH 600 0
DWIDTH 6 0
BBX 7 9 0 0
BITMAP
0c
10
00
76
64
6c
c8
c8
70
ENDCHAR
STARTCHAR Udoubleacute
ENCODING 219
SWIDTH 600 0
DWIDTH 6 0
BBX 7 9 0 0
BITMAP
12
24
00
76
64
6c
c8
c8
70
ENDCHAR
STARTCHAR Udiaeresis
ENCODING 220
SWIDTH 600 0
DWIDTH 6 0
BBX 7 8 0 0
BITMAP
14
00
76
64
6c
c8
c8
70
ENDCHAR
STARTCHAR Yacute
ENCODING 221
SWIDTH 600 0
DWIDTH 6 0
BBX 6 9 1 0
BITMAP
0c
10
00
f4
68
30
60
60
f0
ENDCHAR
STARTCHAR Tcedilla
ENCODING 222
SWIDTH 600 0
DWIDTH 6 0
BBX 7 8 0 -2
BITMAP
7e
b4
30
20
60
f0
08
30
ENDCHAR
STARTCHAR ssharp
ENCODING 223
SWIDTH 600 0
DWIDTH 6 0
BBX 6 6 -1 0
BITMAP
1c
34
28
6c
6c
d8
ENDCHAR
STARTCHAR racute
ENCODING 224
SWIDTH 600 0
DWIDTH 6 0
BBX 7 8 0 0
BITMAP
0c
10
00
76
38
30
60
f0
ENDCHAR
STARTCHAR aacute
ENCODING 225
SWIDTH 600 0
DWIDTH 6 0
BBX 6 8 0 0
BITMAP
0c
10
00
38
0c
7c
d8
fc
ENDCHAR
STARTCHAR acircumflex
ENCODING 226
SWIDTH 600 0
DWIDTH 6 0
BBX 6 8 0 0
BITMAP
0c
14
00
38
0c
7c
d8
fc
ENDCHAR
STARTCHAR abreve
ENCODING 227
SWIDTH 600 0
DWIDTH 6 0
BBX 6 8 0 0
BITMAP
24
18
00
78
0c
7c
c8
fc
ENDCHAR
STARTCHAR adiaeresis
ENCODING 228
SWIDTH 600 0
DWIDTH 6 0
BBX 6 7 0 0
BITMAP
14
00
38
0c
7c
d8
fc
ENDCHAR
STARTCHAR lacute
ENCODING 229
SWIDTH 600 0
DWIDTH 6 0
BBX 6 10 0 0
BITMAP
0c
10
00
3c
0c
18
18
30
30
f8
ENDCHAR
STARTCHAR cacute
ENCODING 230
SWIDTH 600 0
DWIDTH 6 0
BBX 6 8 0 0
BITMAP
0c
10
00
38
6c
c0
d8
70
ENDCHAR
STARTCHAR ccedilla
ENCODING 231
SWIDTH 600 0
DWIDTH 6 0
BBX 6 7 0 -2
BITMAP
38
6c
c0
d8
70
20
c0
ENDCHAR
STARTCHAR ccaron
ENCODING 232
SWIDTH 600 0
DWIDTH 6 0
BBX 6 8 0 0
BITMAP
14
18
00
38
6c
c0
d8
70
ENDCHAR
STARTCHAR eacute
ENCODING 233
SWIDTH 600 0
DWIDTH 6 0
BBX 6 8 0 0
BITMAP
18
20
00
38
6c
fc
c0
78
ENDCHAR
STARTCHAR eogonek
ENCODING 234
SWIDTH 600 0
DWIDTH 6 0
BBX 6 7 0 -2
BITMAP
38
6c
fc
c0
78
40
70
ENDCHAR
STARTCHAR ediaeresis
ENCODING 235
SWIDTH 600 0
DWIDTH 6 0
BBX 6 7 0 0
BITMAP
28
00
38
6c
fc
c0
78
ENDCHAR
STARTCHAR ecaron
ENCODING 236
SWIDTH 600 0
DWIDTH 6 0
BBX 6 8 0 0
BITMAP
14
18
00
38
6c
fc
c0
78
ENDCHAR
STARTCHAR iacute
ENCODING 237
SWIDTH 600 0
DWIDTH 6 0
BBX 6 8 0 0
BITMAP
0c
10
00
38
18
10
30
fc
ENDCHAR
STARTCHAR icircumflex
ENCODING 238
SWIDTH 600 0
DWIDTH 6 0
BBX 6 8 0 0
BITMAP
18
28
00
38
18
10
30
fc
ENDCHAR
STARTCHAR dcaron
ENCODING 239
SWIDTH 810 0
DWIDTH 9 0
BBX 10 8 0 0
BITMAP
0040
0e40
0680
3c00
6c00
cc00
d800
7c00
ENDCHAR
STARTCHAR dstroke
ENCODING 240
SWIDTH 720 0
DWIDTH 8 0
BBX 9 7 0 0
BITMAP
1f80
0600
3c00
6c00
cc00
d800
7c00
ENDCHAR
STARTCHAR nacute
ENCODING 241
SWIDTH 600 0
DWIDTH 6 0
BBX 6 8 0 0
BITMAP
18
20
00
d8
6c
68
d8
dc
ENDCHAR
STARTCHAR ncaron
ENCODING 242
SWIDTH 600 0
DWIDTH 6 0
BBX 6 8 0 0
BITMAP
28
30
00
d8
6c
68
d8
dc
ENDCHAR
STARTCHAR oacute
ENCODING 243
SWIDTH 600 0
DWIDTH 6 0
BBX 6 8 0 0
BITMAP
18
20
00
38
6c
cc
d8
70
ENDCHAR
STARTCHAR ocircumflex
ENCODING 244
SWIDTH 600 0
DWIDTH 6 0
BBX 6 8 0 0
BITMAP
18
28
00
38
6c
cc
d8
70
ENDCHAR
STARTCHAR odoubleacute
ENCODING 245
SWIDTH 600 0
DWIDTH 6 0
BBX 7 8 0 0
BITMAP
12
24
00
38
6c
cc
d8
70
ENDCHAR
STARTCHAR odiaeresis
ENCODING 246
SWIDTH 600 0
DWIDTH 6 0
BBX 6 7 0 0
BITMAP
28
00
38
6c
cc
d8
70
ENDCHAR
STARTCHAR division
ENCODING 247
SWIDTH 600 0
DWIDTH 6 0
BBX 5 5 0 1
BITMAP
10
00
f8
00
40
ENDCHAR
STARTCHAR rcaron
ENCODING 248
SWIDTH 600 0
DWIDTH 6 0
BBX 7 8 0 0
BITMAP
14
18
00
76
38
30
60
f0
ENDCHAR
STARTCHAR uring
ENCODING 249
SWIDTH 600 0
DWIDTH 6 0
BBX 6 9 0 0
BITMAP
20
50
20
00
ec
6c
c8
d8
7c
ENDCHAR
STARTCHAR uacute
ENCODING 250
SWIDTH 600 0
DWIDTH 6 0
BBX 6 8 0 0
BITMAP
18
20
00
ec
6c
c8
d8
7c
ENDCHAR
STARTCHAR udoubleacute
ENCODING 251
SWIDTH 600 0
DWIDTH 6 0
BBX 6 8 0 0
BITMAP
24
48
00
ec
6c
c8
d8
7c
ENDCHAR
STARTCHAR udiaeresis
ENCODING 252
SWIDTH 600 0
DWIDTH 6 0
BBX 6 7 0 0
BITMAP
28
00
ec
6c
c8
d8
7c
ENDCHAR
STARTCHAR yacute
ENCODING 253
SWIDTH 600 0
DWIDTH 6 0
BBX 9 10 -2 -2
BITMAP
0300
0400
0000
3b80
1b00
1a00
1c00
1800
1000
e000
ENDCHAR
STARTCHAR tcedilla
ENCODING 254
SWIDTH 600 0
DWIDTH 6 0
BBX 5 9 1 -2
BITMAP
20
60
f8
60
c0
d8
70
10
60
ENDCHAR
STARTCHAR abovedot
ENCODING 255
SWIDTH 600 0
DWIDTH 6 0
BBX 1 1 3 6
BITMAP
80
ENDCHAR
ENDFONT
